<?xml version="1.0"?>
<svg xmlns="http://www.w3.org/2000/svg" viewBox="0 -38 512.00003 512" width="512px" height="512px"><path d="m330.265625 54.773438-14.488281 3.882812 21.011718 78.417969-69.480468 69.480469-61.007813-16.347657-146.585937 146.582031-25.535156-6.84375 114.882812-114.878906-10.609375-10.609375-114.878906 114.882813-6.84375-25.535156 24.867187-24.867188 25.96875-3.976562 3.519532-22.960938 22.957031-3.515625 3.523437-22.964844 22.960938-3.519531 3.980468-25.972656 30.4375-30.441406 20.359376 20.359374 10.605468-10.609374-24.238281-24.238282-14.707031-54.886718 69.480468-69.480469 72.664063 19.472656 3.882813-14.492187-81.027344-21.710938-81.730469 81.730469 16.347656 61.007812-36.160156 36.160157-3.054687 19.941406-22.957032 3.523437-3.523437 22.960938-22.960938 3.519531-3.519531 22.957031-19.9375 3.050781-34.46875 34.46875 13.566406 50.632813 50.632813 13.566406 146.582031-146.582031 61.011719 16.347656 81.726562-81.726562zm0 0" fill="#3289c7"/><path d="m283.738281 51.882812c-2.699219-.875-5.574219-1.347656-8.558593-1.347656-15.332032 0-27.808594 12.472656-27.808594 27.804688 0 15.335937 12.476562 27.808594 27.808594 27.808594 15.332031 0 27.804687-12.472657 27.804687-27.808594 0-6.859375-2.496094-13.144532-6.628906-18 12.359375-12.824219 29.703125-20.71875 48.695312-20.71875 37.246094 0 67.550781 30.300781 67.550781 67.546875 0 3.472656-.269531 6.914062-.789062 10.292969-2.003906-.378907-4.066406-.578126-6.179688-.578126-18.273437 0-33.144531 14.871094-33.144531 33.144532 0 18.277344 14.871094 33.148437 33.144531 33.148437 18.277344 0 33.148438-14.871093 33.148438-33.148437 0-10.648438-5.050781-20.140625-12.878906-26.207032 1.121094-5.429687 1.699218-11.003906 1.699218-16.652343 0-45.515625-37.03125-82.546875-82.550781-82.546875-24.148437 0-46.117187 10.445312-61.3125 27.261718zm121.894531 80c.75 0 1.492188.046876 2.21875.136719-3.949218 9.96875-10.246093 18.949219-18.453124 26.105469-1.222657-2.4375-1.910157-5.1875-1.910157-8.097656 0-10.003906 8.140625-18.144532 18.144531-18.144532zm18.144532 18.148438c0 10.003906-8.136719 18.144531-18.144532 18.144531-1.511718 0-2.980468-.1875-4.386718-.539062 8.390625-7.808594 15.011718-17.230469 19.519531-27.605469 1.902344 2.867188 3.011719 6.304688 3.011719 10zm-150.089844-84.410156c-3.722656 6.382812-6.617188 13.324218-8.53125 20.683594-1.742188-2.1875-2.78125-4.957032-2.78125-7.960938 0-6.558594 4.953125-11.980469 11.3125-12.722656zm14.296875 12.71875c0 5.507812-3.492187 10.210937-8.378906 12.019531 1.585937-6.210937 4.027343-12.058594 7.183593-17.421875.765626 1.644531 1.195313 3.476562 1.195313 5.402344zm0 0" fill="#3289c7"/><path d="m337.824219 379h135.621093v-179.359375h-135.621093zm15-164.359375h105.621093v149.359375h-105.621093zm0 0" fill="#3289c7"/><path d="m369.496094 232.625h15v113.394531h-15zm0 0" fill="#3289c7"/><path d="m398.132812 232.625h15v113.394531h-15zm0 0" fill="#3289c7"/><path d="m426.769531 232.625h15.003907v113.394531h-15.003907zm0 0" fill="#3289c7"/><path d="m354.949219 109.464844 37.042969-27.828125 9.007812 11.992187-37.042969 27.828125zm0 0" fill="#3289c7"/><path d="m444.851562 100.847656-9.011718 11.996094 61.160156 45.945312v262.128907h-182.734375v-214.929688h-15v229.929688h212.734375v-284.621094zm0 0" fill="#3289c7"/><path d="m170.511719 135.554688-12.421875-46.363282 22.917968-22.917968 10.605469 10.609374-16.792969 16.792969 10.179688 38zm28.175781-65.746094-10.605469-10.605469 10.605469-10.605469 10.605469 10.605469zm17.679688-17.675782-10.609376-10.609374 10.605469-10.605469 10.609375 10.605469zm0 0" fill="#3289c7"/><path d="m479.523438 410.945312h-97.777344v-15h97.777344zm-107.777344 0h-15v-15h15zm-25.003906 0h-15v-15h15zm0 0" fill="#3289c7"/></svg>
