<?xml version="1.0"?>
<svg xmlns="http://www.w3.org/2000/svg" xmlns:xlink="http://www.w3.org/1999/xlink" version="1.1" id="Capa_1" x="0px" y="0px" width="512px" height="512px" viewBox="0 0 512 512" style="enable-background:new 0 0 512 512;" xml:space="preserve" class=""><g><script xmlns="" id="tinyhippos-injected" class="active-path" style="fill:#14CED1" data-old_color="#0FDCDF"/><g>
	<path d="M256,0L0,160h512L256,0z M400,192l16,32v192h64V224l16-32H400z M272,192l16,32v192h64V224l16-32H272z M144,192l16,32v192   h64V224l16-32H144z M16,192l16,32v192h64V224l16-32H16z M16,448L0,512h512l-16-64H16z M288,96c0,17.673-14.327,32-32,32   s-32-14.327-32-32s14.327-32,32-32S288,78.327,288,96z" data-original="#000000" class="active-path" data-old_color="#0FDCDF" fill="#14CED1"/>
</g></g> </svg>
