<?xml version="1.0" encoding="iso-8859-1"?>
<!-- Generator: Adobe Illustrator 19.0.0, SVG Export Plug-In . SVG Version: 6.00 Build 0)  -->
<svg xmlns="http://www.w3.org/2000/svg" xmlns:xlink="http://www.w3.org/1999/xlink" version="1.1" id="Capa_1" x="0px" y="0px" viewBox="0 0 512 512" style="enable-background:new 0 0 512 512;" xml:space="preserve" width="512px" height="512px">
<g>
	<g>
		<path d="M256,366c-5.52,0-10,4.48-10,10c0,5.52,4.48,10,10,10s10-4.48,10-10C266,370.48,261.52,366,256,366z" fill="#3289c7"/>
	</g>
</g>
<g>
	<g>
		<path d="M449,168.66V126h10c13.35,0,25.904-5.202,35.351-14.648C503.797,101.904,509,89.35,509,76c0-5.522-4.477-10-10-10h-60    c-5.523,0-10,4.478-10,10v40v47.371c-29.571-6.998-65.256-12.128-104.372-14.945c-19.15-1.377-38.85-2.16-58.628-2.359V106h10    c13.35,0,25.904-5.202,35.351-14.648C320.797,81.904,326,69.35,326,56c0-5.522-4.477-10-10-10h-60c-5.523,0-10,4.478-10,10v40    v50.067c-19.778,0.198-39.478,0.981-58.628,2.359c-39.115,2.817-74.8,7.947-104.372,14.945V126h10    c13.35,0,25.904-5.202,35.351-14.648C137.797,101.904,143,89.35,143,76c0-5.522-4.477-10-10-10H73c-5.523,0-10,4.478-10,10v40    v52.661C21.195,181.083,0,196.998,0,216v60v60v60c0,15.208,13.605,28.497,40.437,39.497    c43.122,17.679,108.046,25.664,154.933,28.613c19.854,1.254,40.253,1.89,60.63,1.89s40.776-0.636,60.627-1.89    c46.36-2.915,111.663-10.872,154.936-28.613C498.395,424.497,512,411.208,512,396v-60v-60v-60    C512,196.998,490.806,181.083,449,168.66z M449,86h38.298c-1.471,4.168-3.87,7.989-7.089,11.209    C474.54,102.878,467.007,106,459,106h-10V86z M266,66h38.298c-1.471,4.168-3.87,7.989-7.089,11.209    C291.54,82.878,284.007,86,276,86h-10V66z M83,86h38.298c-1.471,4.168-3.87,7.989-7.089,11.209C108.54,102.878,101.007,106,93,106    H83V86z M329.452,168.856c32.933,2.607,63.103,6.887,88.757,12.559l-44.378,31.697c-20.623-2.847-44.424-4.905-69.852-6.048    L329.452,168.856z M256,166c16.942,0,33.84,0.446,50.433,1.329l-25.968,38.951c-16.143-0.363-32.796-0.363-48.931,0    l-25.968-38.951C222.16,166.447,239.058,166,256,166z M182.548,168.855l25.473,38.208c-25.424,1.143-49.235,3.199-69.863,6.041    l-44.367-31.689C119.445,175.743,149.615,171.463,182.548,168.855z M68.463,187.903l41.903,29.929    c-9.286,1.952-17.205,4.088-23.65,6.391c-8.865,3.167-20.591,8.467-22.96,18.45C29.873,231.925,20,221.056,20,216    C20,210.806,30.365,199.25,68.463,187.903z M123,436.124C48.21,424.051,20,405.383,20,396v-31.11    c5.699,3.699,12.599,7.208,20.709,10.511c20.601,8.39,48.929,15.544,82.291,20.822V436.124z M123,375.967    c-30.482-4.978-56.165-11.521-74.747-19.089C27.399,348.384,20,340.322,20,336v-30.934c5.635,3.673,12.444,7.154,20.437,10.431    c20.591,8.442,49.012,15.611,82.563,20.868V375.967z M123,316.124C48.21,304.051,20,285.383,20,276v-30.862    c14.795,9.633,37.757,17.936,68.787,24.836c10.676,2.365,22.159,4.506,34.213,6.393V316.124z M186,443.409    c-14.837-1.114-29.235-2.577-43-4.376v-39.948c13.788,1.778,28.174,3.236,43,4.348V443.409z M187.123,383.46    c-15.256-1.151-30.03-2.671-44.123-4.54v-39.728c20.71,2.628,42.69,4.527,65.262,5.638c-0.343,0.32-0.694,0.627-1.031,0.955    C196.64,356.073,189.697,369.186,187.123,383.46z M143,319.031v-39.84c32.14,4.078,67.336,6.387,103,6.752v39.999    C210.217,325.569,174.974,323.205,143,319.031z M306,444.686c-13.187,0.694-26.572,1.11-40,1.248V416c0-5.522-4.477-10-10-10    s-10,4.478-10,10v29.934c-13.428-0.138-26.813-0.554-40-1.248V396c0-0.524,0.008-1.048,0.025-1.58    C206.867,367.269,228.818,346,256,346c13.352,0,25.91,5.201,35.356,14.639c9.032,9.04,14.224,21.037,14.619,33.789    c0.017,0.524,0.025,1.048,0.025,1.572V444.686z M369,439.032c-13.763,1.8-28.161,3.263-43,4.377v-39.976    c14.827-1.112,29.214-2.571,43-4.348V439.032z M369,378.919c-14.093,1.87-28.871,3.391-44.131,4.541    c-2.518-13.927-9.2-26.784-19.371-36.964c-0.572-0.572-1.163-1.117-1.752-1.667c22.57-1.111,44.546-3.01,65.254-5.638V378.919z     M369,319.03c-31.973,4.175-67.216,6.539-103,6.912v-39.999c35.685-0.365,70.881-2.676,103-6.754V319.03z M256,266    c-42.381,0-84.399-2.812-121.514-8.13c-13.482-1.928-26.266-4.187-38.076-6.712c-0.569-0.358-1.183-0.664-1.838-0.908    c-4.158-1.55-6.898-2.883-8.683-3.912c26.537-14.452,110.096-19.098,140.66-19.932c19.313-0.539,39.583-0.539,58.908,0    c33.239,0.907,64.292,3.365,89.803,7.108c32.158,4.711,45.533,9.958,50.8,12.836c-2.254,1.303-6.051,3.095-12.318,5.199    c-11.35,2.384-23.517,4.507-36.193,6.312C340.453,263.186,298.421,266,256,266z M492,396c0,9.382-28.209,28.051-103,40.123    v-39.901c33.365-5.279,61.692-12.432,82.291-20.822c8.11-3.303,15.01-6.811,20.709-10.511V396z M492,336    c0,4.322-7.399,12.384-28.253,20.878c-18.58,7.567-44.261,14.11-74.747,19.089v-39.602c33.552-5.257,61.973-12.426,82.563-20.868    c7.992-3.277,14.801-6.758,20.437-10.431V336z M492,276c0,9.382-28.21,28.051-103,40.123v-39.754    c30.682-4.795,77.116-14.354,103-31.207V276z M448.183,242.703c-2.384-10.12-14.423-15.481-23.555-18.687    c-6.332-2.222-14.027-4.287-23.005-6.176l41.915-29.938C481.635,199.25,492,210.806,492,216    C492,221.148,482.034,231.997,448.183,242.703z" fill="#3289c7"/>
	</g>
</g>
<g>
</g>
<g>
</g>
<g>
</g>
<g>
</g>
<g>
</g>
<g>
</g>
<g>
</g>
<g>
</g>
<g>
</g>
<g>
</g>
<g>
</g>
<g>
</g>
<g>
</g>
<g>
</g>
<g>
</g>
</svg>
