<svg height="438pt" viewBox="-104 0 438 438.60006" width="438pt" xmlns="http://www.w3.org/2000/svg" xmlns:xlink="http://www.w3.org/1999/xlink"><linearGradient id="a" gradientTransform="matrix(1 0 0 -1 -140.69996 477.200062)" gradientUnits="userSpaceOnUse" x1="256" x2="256" y1="498" y2="13.191"><stop offset="0" stop-color="#00efd1"/><stop offset="1" stop-color="#00acea"/></linearGradient><path d="m220.300781 0c-5.515625.015625-9.984375 4.484375-10 10v41.199219h-190v-41.199219c0-5.523438-4.476562-10-10-10-5.523437 0-10 4.476562-10 10v104.601562c.050781 45.191407 26.582031 86.164063 67.800781 104.699219-41.265624 18.480469-67.820312 59.484375-67.800781 104.699219v104.601562c0 5.519532 4.476563 10 10 10 5.523438 0 10-4.480468 10-10v-39.402343h190v39.199219c0 5.523437 4.476563 10 10 10 5.523438 0 10-4.476563 10-10v-104.5c-.050781-45.191407-26.582031-86.164063-67.800781-104.699219 41.265625-18.480469 67.820312-59.484375 67.800781-104.699219v-104.5c.007813-2.65625-1.042969-5.203125-2.917969-7.082031-1.878906-1.875-4.429687-2.9257815-7.082031-2.917969zm-10 71.199219v33h-190v-33zm-10.5 86h-169c-5.230469-10.3125-8.519531-21.496094-9.699219-33h188.296876c-1.097657 11.507812-4.355469 22.703125-9.597657 33zm9.800781 159h-188.601562c.875-11.460938 3.894531-22.652344 8.898438-33h170.902343c4.929688 10.371093 7.910157 21.554687 8.800781 33zm-189.300781 53v-33h190v33zm167.597657-106h-145.199219c17.957031-21.542969 44.554687-34 72.601562-34s54.644531 12.457031 72.597657 34zm-72.597657-54c-27.128906-.003907-52.949219-11.65625-70.902343-32h141.800781c-17.949219 20.34375-43.769531 31.996093-70.898438 32zm0 0" fill="url(#a)"/></svg>